<?xml version="1.0" encoding="UTF-8" standalone="no"?>
<svg
   xmlns:dc="http://purl.org/dc/elements/1.1/"
   xmlns:cc="http://creativecommons.org/ns#"
   xmlns:rdf="http://www.w3.org/1999/02/22-rdf-syntax-ns#"
   xmlns:svg="http://www.w3.org/2000/svg"
   xmlns="http://www.w3.org/2000/svg"
   viewBox="0 0 249.93333 170.70667"
   height="170.70667"
   width="249.93333"
   xml:space="preserve"
   id="svg2"
   version="1.1"><metadata
     id="metadata8"><rdf:RDF><cc:Work
         rdf:about=""><dc:format>image/svg+xml</dc:format><dc:type
           rdf:resource="http://purl.org/dc/dcmitype/StillImage" /></cc:Work></rdf:RDF></metadata><defs
     id="defs6" /><g
     transform="matrix(1.3333333,0,0,-1.3333333,0,170.70667)"
     id="g10"><g
       transform="scale(0.1)"
       id="g12"><path
         id="path14"
         style="fill:#80cc28;fill-opacity:1;fill-rule:nonzero;stroke:none"
         d="m 390.934,1061.54 c -5.914,1.08 -12.141,1.68 -18.571,1.68 h -122.39 c 46.957,12.73 81.507,55.64 81.507,106.63 0,61.02 -49.468,110.49 -110.496,110.49 -61.019,0 -110.492,-49.47 -110.492,-110.49 0,-50.99 34.559,-93.9 81.516,-106.63 H 69.6133 C 31.168,1063.22 0,1042.45 0,1016.82 V 566.363 C 0,540.738 31.168,519.961 69.6133,519.961 H 84.9961 V 56.0703 c 0,-25.6211 25.5739,-46.39842 57.1169,-46.39842 h 80.133 c -3.262,4.41792 -5.137,9.59762 -5.137,15.11722 V 319.559 h -9.773 c -24.43,0 -44.234,13.195 -44.234,29.484 v 286.219 c 0,16.285 19.804,29.488 44.234,29.488 h 53.566 c -16.765,12.832 -27.59,33.035 -27.59,55.781 0,38.774 31.43,70.207 70.208,70.207 38.777,0 70.21,-31.433 70.21,-70.207 0,-22.746 -10.824,-42.949 -27.593,-55.781 h 5.48 v -34.574 c 0,-29.953 20.778,-54.231 46.406,-54.231 h 13.075 c 25.632,0 46.406,24.278 46.406,54.231 v 370.344 c 0,29.25 -40.789,59.6 -66.57,61.02" /><path
         id="path16"
         style="fill:#231f20;fill-opacity:1;fill-rule:nonzero;stroke:none"
         d="m 311.98,286.797 v 226.941 h 46.922 v -86.523 h 87.868 v 86.523 h 46.918 V 286.797 H 446.77 V 388.105 H 358.902 V 286.797 H 311.98" /><path
         id="path18"
         style="fill:#231f20;fill-opacity:1;fill-rule:nonzero;stroke:none"
         d="m 600.59,372.559 h 57.887 l -28.551,89.296 z m 3.117,141.179 h 53.438 l 79.96,-226.941 h -51.214 l -14.914,46.648 h -83.235 l -15.32,-46.648 h -49.399 l 80.684,226.941" /><path
         id="path20"
         style="fill:#231f20;fill-opacity:1;fill-rule:nonzero;stroke:none"
         d="m 765.09,513.738 h 49.512 l 89.714,-158.242 v 158.242 h 44.008 V 286.797 H 901.109 L 809.098,447.82 V 286.797 H 765.09 v 226.941" /><path
         id="path22"
         style="fill:#231f20;fill-opacity:1;fill-rule:nonzero;stroke:none"
         d="M 1038.48,474.324 V 326.211 h 43.62 c 22.32,0 37.89,11.031 46.68,33.105 4.82,12.11 7.22,26.532 7.22,43.27 0,23.086 -3.6,40.82 -10.82,53.191 -7.23,12.368 -21.57,18.547 -43.08,18.547 z m 86.59,34.492 c 15.85,-5.234 28.69,-14.832 38.52,-28.789 7.88,-11.297 13.24,-23.504 16.11,-36.648 2.86,-13.137 4.3,-25.664 4.3,-37.57 0,-30.176 -6.04,-55.735 -18.11,-76.668 -16.37,-28.223 -41.64,-42.344 -75.81,-42.344 h -97.439 v 226.941 h 97.439 c 14.02,-0.207 25.68,-1.843 34.99,-4.922" /><path
         id="path24"
         style="fill:#231f20;fill-opacity:1;fill-rule:nonzero;stroke:none"
         d="m 1253.46,356.844 c 1.47,-10.36 4.33,-18.106 8.62,-23.242 7.82,-9.344 21.23,-14.012 40.23,-14.012 11.38,0 20.61,1.23 27.7,3.699 13.47,4.719 20.2,13.496 20.2,26.32 0,7.5 -3.29,13.297 -9.89,17.403 -6.59,4.004 -17.05,7.547 -31.38,10.625 l -24.47,5.39 c -24.05,5.332 -40.57,11.129 -49.56,17.391 -15.24,10.48 -22.85,26.848 -22.85,49.121 0,20.32 7.45,37.207 22.35,50.656 14.9,13.446 36.79,20.164 65.66,20.164 24.11,0 44.67,-6.336 61.7,-19.011 17.02,-12.676 25.95,-31.075 26.78,-55.196 h -45.39 c -0.84,13.653 -6.91,23.348 -18.23,29.102 -7.55,3.789 -16.93,5.691 -28.15,5.691 -12.46,0 -22.42,-2.461 -29.86,-7.39 -7.44,-4.922 -11.16,-11.809 -11.16,-20.625 0,-8.118 3.67,-14.172 11,-18.164 4.72,-2.688 14.73,-5.813 30.03,-9.399 l 39.66,-9.39 c 17.38,-4.114 30.41,-9.602 39.09,-16.477 13.48,-10.676 20.22,-26.121 20.22,-46.348 0,-20.73 -7.99,-37.949 -23.95,-51.648 -15.97,-13.703 -38.52,-20.559 -67.65,-20.559 -29.76,0 -53.16,6.75 -70.21,20.246 -17.04,13.497 -25.57,32.047 -25.57,55.653 h 45.08" /><path
         id="path26"
         style="fill:#80cc28;fill-opacity:1;fill-rule:nonzero;stroke:none"
         d="m 1573.39,341.453 c 10.99,13.859 16.49,33.567 16.49,59.121 0,25.457 -5.5,45.137 -16.49,59.043 -10.98,13.906 -25.84,20.867 -44.55,20.867 -18.7,0 -33.63,-6.929 -44.76,-20.789 -11.15,-13.855 -16.72,-33.562 -16.72,-59.121 0,-25.554 5.57,-45.262 16.72,-59.121 11.13,-13.855 26.06,-20.781 44.76,-20.781 18.71,0 33.57,6.926 44.55,20.781 z m 29.52,-34.492 c -17.08,-17.645 -41.76,-26.484 -74.07,-26.484 -32.29,0 -56.98,8.839 -74.05,26.484 -22.9,21.66 -34.35,52.859 -34.35,93.613 0,41.574 11.45,72.774 34.35,93.614 17.07,17.656 41.76,26.484 74.05,26.484 32.31,0 56.99,-8.828 74.07,-26.484 22.8,-20.84 34.19,-52.04 34.19,-93.614 0,-40.754 -11.39,-71.953 -34.19,-93.613" /><path
         id="path28"
         style="fill:#80cc28;fill-opacity:1;fill-rule:nonzero;stroke:none"
         d="m 1672.37,513.738 h 49.51 l 89.72,-158.242 v 158.242 h 44 V 286.797 h -47.22 l -92,161.023 V 286.797 h -44.01 v 226.941" /><path
         id="path30"
         style="fill:#231f20;fill-opacity:1;fill-rule:nonzero;stroke:none"
         d="M 315.621,6.76172 V 268.609 h 54.137 V 168.77 h 101.379 v 99.839 h 54.136 V 6.76172 H 471.137 V 123.648 H 369.758 V 6.76172 h -54.137" /><path
         id="path32"
         style="fill:#231f20;fill-opacity:1;fill-rule:nonzero;stroke:none"
         d="M 770.488,222.238 H 632.484 V 166.641 H 759.172 V 121.16 H 632.484 V 53.8398 H 776.859 V 6.76172 H 579.238 V 268.609 h 191.25 v -46.371" /><path
         id="path34"
         style="fill:#231f20;fill-opacity:1;fill-rule:nonzero;stroke:none"
         d="m 819.32,268.609 h 54.496 V 53.8398 H 1004.03 V 6.76172 H 819.32 V 268.609" /><path
         id="path36"
         style="fill:#231f20;fill-opacity:1;fill-rule:nonzero;stroke:none"
         d="m 1174.15,214.43 c -6.91,5.8 -16.58,8.699 -29.01,8.699 h -49.11 v -77.098 h 49.11 c 12.43,0 22.1,3.141 29.01,9.418 6.89,6.281 10.35,16.231 10.35,29.852 0,13.609 -3.46,23.328 -10.35,29.129 z m 41.58,-94.328 c -15.27,-12.793 -37.06,-19.18 -65.39,-19.18 h -54.31 V 6.76172 H 1041.9 V 268.609 h 111.96 c 25.82,0 46.41,-6.75 61.75,-20.238 15.35,-13.512 23.03,-34.422 23.03,-62.723 0,-30.91 -7.64,-52.757 -22.91,-65.546" /><path
         id="path38"
         style="fill:#231f20;fill-opacity:1;fill-rule:nonzero;stroke:none"
         d="m 1277.91,6.76172 h 54.1406 v 261.848 H 1277.91 Z" /><path
         id="path40"
         style="fill:#231f20;fill-opacity:1;fill-rule:nonzero;stroke:none"
         d="m 1382.12,268.609 h 57.12 L 1542.77,86.0312 V 268.609 h 50.78 V 6.76172 h -54.49 L 1432.9,192.559 V 6.76172 h -50.78 V 268.609" /><path
         id="path42"
         style="fill:#231f20;fill-opacity:1;fill-rule:nonzero;stroke:none"
         d="m 1820,186.891 c -4.12,17.879 -14.2,30.379 -30.24,37.488 -8.97,3.91 -18.93,5.859 -29.9,5.859 -21,0 -38.25,-7.949 -51.76,-23.847 -13.51,-15.891 -20.25,-39.801 -20.25,-71.711 0,-32.16 7.31,-54.9183 21.93,-68.2816 14.63,-13.3476 31.26,-20.0195 49.9,-20.0195 18.27,0 33.26,5.2617 44.93,15.8008 11.68,10.5195 18.87,24.332 21.6,41.3903 h -60.34 v 43.711 H 1874.5 V 6.76172 h -36.09 l -5.49,32.67968 C 1822.43,27.0703 1812.99,18.3398 1804.61,13.2695 1790.22,4.42969 1772.53,0 1751.54,0 c -34.56,0 -62.87,12.0195 -84.92,36.0391 -23,24.1523 -34.51,57.1718 -34.51,99.0819 0,42.359 11.63,76.328 34.86,101.899 23.23,25.57 53.96,38.351 92.18,38.351 33.14,0 59.77,-8.441 79.88,-25.312 20.11,-16.887 31.64,-37.93 34.59,-63.168 H 1820" /></g></g></svg>